<?xml version="1.0" encoding="UTF-8"?>
<svg version="1.1" xmlns="http://www.w3.org/2000/svg" width="250" height="249">
<path d="M0 0 C1.97967892 0.00373634 3.9593597 0.00658038 5.93904114 0.00857544 C11.11586736 0.01616299 16.29257899 0.03576889 21.46936035 0.0579834 C26.7653651 0.07854764 32.0613886 0.08759965 37.35742188 0.09765625 C47.72400832 0.11901994 58.0905102 0.15309609 68.45703125 0.1953125 C67.38143364 3.52564467 66.29776773 6.75951876 64.76123047 9.90576172 C64.4410495 10.56599335 64.12086853 11.22622498 63.79098511 11.90646362 C63.45132721 12.59733063 63.11166931 13.28819763 62.76171875 14 C62.40941193 14.7239798 62.0571051 15.44795959 61.69412231 16.19387817 C60.57689375 18.48773368 59.45455128 20.77904254 58.33203125 23.0703125 C57.56997234 24.63264662 56.80825006 26.195145 56.046875 27.7578125 C54.18810386 31.57254543 52.32242701 35.38378632 50.45703125 39.1953125 C43.19703125 39.1953125 35.93703125 39.1953125 28.45703125 39.1953125 C29.72794855 35.3825606 30.78785026 32.28906241 32.58203125 28.8203125 C32.93523437 28.13195312 33.2884375 27.44359375 33.65234375 26.734375 C33.91789062 26.22648437 34.1834375 25.71859375 34.45703125 25.1953125 C27.11126496 25.25661009 19.76584448 25.33377789 12.4204607 25.43102741 C9.00941661 25.47569321 5.59849089 25.51495717 2.18725586 25.54174805 C-1.73740024 25.57281056 -5.66155476 25.62759868 -9.5859375 25.68359375 C-10.80693649 25.68998367 -12.02793549 25.6963736 -13.28593445 25.70295715 C-14.42673965 25.72275131 -15.56754486 25.74254547 -16.74291992 25.76293945 C-17.74441574 25.77404251 -18.74591156 25.78514557 -19.77775574 25.79658508 C-23.64162345 26.35373203 -26.4945776 27.79745763 -28.85546875 30.9453125 C-29.85495986 34.2163743 -29.90113445 36.79273838 -29.54296875 40.1953125 C-27.7473447 42.94860271 -26.49041953 44.72158711 -23.54296875 46.1953125 C-22.15675966 46.3027287 -20.76574371 46.3514687 -19.37548828 46.36889648 C-18.51343781 46.38238632 -17.65138733 46.39587616 -16.76321411 46.40977478 C-15.35868484 46.42543236 -15.35868484 46.42543236 -13.92578125 46.44140625 C-11.93619419 46.47438552 -9.94661096 46.50759638 -7.95703125 46.54101562 C-4.82620281 46.58811961 -1.69538505 46.63246527 1.43554688 46.67211914 C37.88212951 47.15641094 37.88212951 47.15641094 51.45703125 59.3828125 C59.28464778 68.12431319 61.84841052 78.15385041 61.73046875 89.5234375 C61.03971111 98.79932581 57.09206285 106.70691143 50.45703125 113.1953125 C41.56741316 120.04254411 33.96938018 122.51423047 22.94165039 122.42236328 C21.55023331 122.42280136 21.55023331 122.42280136 20.13070679 122.42324829 C17.08443638 122.42186217 14.03841484 122.40633481 10.9921875 122.390625 C8.87227004 122.38689232 6.75235084 122.38404655 4.63243103 122.38204956 C-0.93243213 122.3744332 -6.49719 122.35480187 -12.06201172 122.3326416 C-17.74640478 122.31214011 -23.43081495 122.30303865 -29.11523438 122.29296875 C-40.25785862 122.27155409 -51.40040491 122.23744228 -62.54296875 122.1953125 C-53.04296875 103.1953125 -53.04296875 103.1953125 -43.54296875 84.1953125 C-36.28296875 84.1953125 -29.02296875 84.1953125 -21.54296875 84.1953125 C-22.83657474 87.42932748 -24.10203989 90.4281524 -25.66796875 93.5078125 C-26.02117187 94.20519531 -26.374375 94.90257812 -26.73828125 95.62109375 C-27.00382812 96.14058594 -27.269375 96.66007812 -27.54296875 97.1953125 C-19.80174046 97.27138221 -12.06060859 97.32392084 -4.3190918 97.36010742 C-1.68559161 97.37519307 0.94788346 97.39566416 3.58129883 97.42163086 C7.36676229 97.45802269 11.15189352 97.4750414 14.9375 97.48828125 C16.11475143 97.50376511 17.29200287 97.51924896 18.50492859 97.53520203 C19.60569229 97.53542862 20.70645599 97.53565521 21.84057617 97.53588867 C22.80654221 97.54255051 23.77250824 97.54921234 24.76774597 97.55607605 C28.72911671 97.02466416 31.33577828 95.20057378 34.26953125 92.5703125 C36.13747214 88.83443071 36.10668021 85.28299136 35.45703125 81.1953125 C33.66042609 77.94760318 32.3728076 76.61048875 29.00463867 75.08349609 C24.08366243 73.8514741 19.37422052 73.91697447 14.3203125 73.921875 C12.11132313 73.9015782 9.90233879 73.88072727 7.69335938 73.859375 C4.23538963 73.83684272 0.77761971 73.82032624 -2.68041992 73.81445312 C-6.03470395 73.80486192 -9.3881042 73.77099918 -12.7421875 73.734375 C-14.26932625 73.74194321 -14.26932625 73.74194321 -15.82731628 73.74966431 C-27.39696261 73.5932158 -37.84410228 69.55026395 -46.29296875 61.53515625 C-54.19650108 52.86102952 -56.1315526 43.82579358 -55.875 32.37890625 C-55.34608102 22.79959587 -50.98229574 15.47931415 -43.9921875 9.1015625 C-30.95659118 -1.04416478 -15.68027536 -0.08738531 0 0 Z " fill="#F29414" transform="translate(119.54296875,58.8046875)"/>
</svg>
